<?xml version="1.0" encoding="UTF-8"?>
<svg xmlns="http://www.w3.org/2000/svg" data-name="Layer 1" viewBox="0 0 100 125" x="0px" y="0px" fill="#f38f19"><path d="M50,1A49,49,0,1,0,99,50,49.06,49.06,0,0,0,50,1ZM94.2,50A44.2,44.2,0,1,1,50,5.8,44.25,44.25,0,0,1,94.2,50Z"/><path d="M74.89,63.38a2.4,2.4,0,0,0-3.34.64C70.76,65.2,63.43,75.46,50,75.46S29.24,65.2,28.45,64a2.4,2.4,0,0,0-4,2.69C25.41,68.11,34.1,80.26,50,80.26S74.59,68.11,75.53,66.72a2.4,2.4,0,0,0-.64-3.33Z"/><circle cx="37.52" cy="36.55" r="5.76"/><circle cx="62.48" cy="36.55" r="5.76"/></svg>